<svg width="540" height="20" viewBox="0 0 540 20" fill="none" xmlns="http://www.w3.org/2000/svg">
<g clip-path="url(#clip0_13_144)">
<path d="M534.643 10.5141C534.803 10.5666 534.698 10.2567 534.408 9.82217L534.233 9.55814C533.944 9.12407 533.821 8.78446 533.959 8.79957C534.098 8.81469 533.955 8.61536 533.641 8.35416C533.328 8.09296 533.171 7.86105 533.291 7.83649C533.41 7.81192 533.12 7.62205 532.645 7.40572C531.737 6.99243 530.869 6.53568 530.291 5.76531C530.126 5.52253 530.076 5.31328 530.108 5.12718C530.173 4.75687 530.529 4.64115 530.591 4.72428L530.703 4.87448C530.924 5.22496 531.301 5.49371 532.094 5.54331C532.611 5.58865 532.931 5.88386 533.23 6.21024C533.377 6.35147 533.523 6.44735 533.671 6.48892C533.951 6.56874 534.089 6.35761 533.981 6.29337C533.873 6.22866 533.481 6.07421 533.598 5.84277C533.715 5.61132 533.996 5.3095 534.017 5.08609C534.038 4.8622 533.7 4.66902 533.552 4.55188L533.285 4.34028C533.192 4.28029 533.099 4.24628 533.006 4.23022C532.842 4.20141 532.63 4.08049 532.454 3.99783C532.279 3.91565 531.874 3.89439 531.897 3.74089C531.904 3.69176 531.999 3.64264 532.127 3.59352C532.434 3.49858 532.743 3.51417 533.051 3.68279C533.306 3.84669 533.659 3.89817 534.029 3.95627C534.545 4.03704 535.061 4.14426 535.162 4.03987C535.263 3.93549 535.299 3.49386 535.299 3.09426C535.299 2.69467 534.877 2.49204 534.36 2.42166C533.285 2.27571 533.044 1.32065 532.558 0.65844C532.249 0.238063 531.914 0.424162 531.661 0.506821C531.558 0.540829 531.407 0.490289 531.216 0.366065C531.078 0.260735 530.942 0.157766 530.805 0.0713295C530.569 -0.0779278 530.713 0.371261 530.354 0.47423C529.996 0.577198 529.616 0.0113432 529.37 0.000479494C529.124 -0.0103842 529.262 0.143124 529.422 0.405269C529.531 0.585228 529.47 0.778412 529.177 0.700949C528.893 0.648993 528.638 0.659856 528.407 0.721732C527.992 0.833203 527.887 1.10291 528.081 1.11849C528.274 1.13361 528.7 1.16667 528.83 1.40425C528.912 1.55257 528.843 1.6971 528.566 1.64656C528.385 1.62719 528.245 1.6579 528.132 1.72308C527.918 1.84683 528.098 1.85628 528.325 2.01781C528.417 2.083 528.384 2.23367 528.192 2.45378C525.783 5.20323 529.654 7.33817 530.732 10.0475C530.926 10.5321 530.759 10.593 530.469 10.1594C527.742 6.09358 524.716 5.40491 521.449 7.42083C521.005 7.69479 521.085 7.88655 521.605 7.83082C522.065 7.78122 522.526 7.76375 522.987 7.85821C523.501 8.01078 523.954 8.18318 523.58 8.41084C522.673 8.94505 521.633 9.47359 521.231 10.0324C520.926 10.4556 521.103 10.4022 521.491 10.0531C521.85 9.73007 522.495 9.52649 523.271 9.37676C523.784 9.27805 524.396 9.12265 524.652 9.10753C524.855 9.09573 524.904 9.20247 524.811 9.42022C524.682 9.7074 524.567 9.99505 524.463 10.2827C524.287 10.7654 524.477 10.8745 524.907 10.5784C529.989 7.08028 532.806 16.3201 528.262 14.0113C527.796 13.7751 527.639 13.9145 527.983 14.3056C529.896 16.4792 532.943 14.2999 532.365 10.3091C532.29 9.79289 532.391 9.74991 532.578 10.2374C533.215 11.8986 532.986 13.5734 532.15 14.9517C531.691 15.8704 528.964 17.4272 531.053 19.7577C531.401 20.1464 531.511 20.0496 531.259 19.5919C530.718 18.6057 530.517 17.7489 531.833 16.8259C532.814 16.244 533.838 14.9635 534.241 12.9348C534.344 12.4238 534.609 12.3647 534.726 12.873C534.803 13.206 534.84 13.5602 534.866 13.9192C534.904 14.4402 534.974 14.4402 534.981 13.9182C534.994 13.0595 534.909 12.1919 534.662 11.311C534.521 10.8094 534.484 10.4617 534.643 10.5141ZM531.7 1.21296C531.917 1.21296 532.094 1.38914 532.094 1.60641C532.094 1.82369 531.917 1.99987 531.7 1.99987C531.483 1.99987 531.307 1.82369 531.307 1.60641C531.306 1.38914 531.482 1.21296 531.7 1.21296Z" fill="white"/>
<path d="M538.48 6.91779C538.357 6.88945 538.247 6.85308 538.153 6.81293C537.673 6.60746 537.967 6.15119 537.635 5.74829C537.609 5.71712 537.584 5.68547 537.559 5.65335C537.24 5.24148 536.848 5.47481 536.434 5.15787C536.374 5.11206 536.312 5.05679 536.249 4.99492C535.877 4.62933 535.341 4.66806 534.824 4.60005C534.693 4.58257 534.552 4.55565 534.407 4.52448C533.897 4.41489 533.827 4.56982 534.269 4.84708C534.644 5.0823 535.023 5.31752 535.28 5.54377C535.672 5.8881 535.698 6.45915 535.95 6.31698C536.202 6.17481 536.604 6.16489 536.928 6.57346C537.328 7.07744 537.808 7.63195 538.6 7.39721C539.1 7.24842 538.99 7.03493 538.48 6.91779Z" fill="white"/>
</g>
<path d="M466.747 5.89679C466.838 5.89679 466.913 5.84424 466.922 5.7749C466.927 5.73838 466.918 5.69243 466.904 5.64971C466.882 5.58279 466.967 5.62014 467.105 5.72854C467.243 5.83688 467.355 5.99041 467.355 6.07082C467.355 6.15164 467.412 6.21692 467.483 6.21692H467.611H468.612C468.612 6.21692 468.682 6.21692 468.768 6.21692C468.854 6.21692 469.291 6.21692 469.745 6.21692C469.911 6.21692 470.087 6.21692 470.253 6.21692C470.706 6.21692 471.144 6.21692 471.23 6.21692C471.308 6.21692 471.386 6.21692 471.386 6.21692H472.388C472.388 6.21692 472.446 6.21692 472.516 6.21692C472.587 6.21692 472.644 6.15164 472.644 6.07123C472.644 5.99082 472.756 5.8377 472.894 5.72895C473.032 5.62021 473.117 5.58327 473.095 5.65013C473.082 5.69284 473.072 5.73879 473.077 5.77532C473.086 5.84506 473.161 5.89762 473.252 5.89762C473.309 5.89762 473.364 5.87629 473.407 5.8377C473.454 5.79581 473.468 5.74491 473.467 5.69731C473.464 5.6103 473.421 5.43421 473.421 5.2943C473.421 5.15391 473.409 5.04516 473.394 5.05094L473.368 5.0616C473.366 5.06243 473.182 5.13424 472.874 5.13424C472.571 5.13424 472.09 5.06284 471.525 4.72215C471.134 4.48656 470.874 4.21445 470.701 3.96448C470.445 3.59098 470.44 3.22325 470.518 3.22738C470.568 3.22986 470.616 3.2311 470.661 3.2311C471.155 3.2311 471.267 3.08458 471.277 3.06773C471.277 3.06773 471.283 3.05913 471.291 3.04847C471.298 3.03781 471.294 3.02467 471.282 3.01972L471.26 3.0103C471.086 2.93436 470.932 2.84246 470.804 2.75338C470.567 2.58713 470.405 2.3988 470.401 2.38236C470.396 2.36592 470.351 1.98836 470.288 1.53933C470.236 1.1617 470.172 0.71439 470.118 0.33676C470.053 -0.111856 469.948 -0.112269 469.883 0.336347L469.708 1.54057C469.643 1.98918 469.599 2.3655 469.598 2.38236C469.597 2.39921 469.434 2.58679 469.196 2.75297C469.069 2.84205 468.914 2.93394 468.739 3.00988C468.739 3.00988 468.729 3.01401 468.717 3.01931C468.706 3.02467 468.702 3.0374 468.709 3.04806L468.722 3.06773C468.733 3.08417 468.846 3.23068 469.339 3.23068C469.385 3.23068 469.432 3.22944 469.482 3.22697C469.561 3.22284 469.556 3.59105 469.299 3.96448C469.127 4.21403 468.868 4.48615 468.476 4.72174C467.911 5.06243 467.431 5.13383 467.127 5.13383C466.82 5.13383 466.635 5.06202 466.633 5.06119C466.633 5.06119 466.621 5.05624 466.607 5.05053C466.592 5.04475 466.58 5.15357 466.58 5.29348C466.58 5.43339 466.537 5.60913 466.534 5.69614C466.533 5.74581 466.547 5.79712 466.593 5.83695C466.635 5.8754 466.69 5.89679 466.747 5.89679Z" fill="white"/>
<path d="M463.951 9.79174C464.008 9.78678 464.081 9.74414 464.126 9.68787C464.167 9.63821 464.183 9.5816 464.176 9.52533C464.169 9.47484 464.144 9.42807 464.115 9.38783C464.065 9.32008 464.01 9.26471 464.011 9.24662C464.012 9.22852 464.185 9.37958 464.433 9.53022C464.682 9.68086 464.923 9.75961 464.923 9.81547C464.923 9.87132 464.976 9.91644 465.042 9.91644H465.161H474.256C474.709 9.91644 475.077 9.87132 475.077 9.81547C475.077 9.75961 475.317 9.68127 475.565 9.53022C475.814 9.37958 475.986 9.22894 475.987 9.24662C475.988 9.26429 475.933 9.32049 475.883 9.38783C475.854 9.42766 475.829 9.47484 475.823 9.52492C475.815 9.58194 475.833 9.63821 475.873 9.68787C475.918 9.74448 475.991 9.7872 476.049 9.79174C476.181 9.79256 476.356 9.73306 476.367 9.57011C476.372 9.51391 476.359 9.46748 476.34 9.43055C476.303 9.35915 476.243 9.20562 476.243 9.05952C476.243 8.91342 476.222 8.78452 476.195 8.77138C476.167 8.75824 476.074 8.79807 475.985 8.86004C475.896 8.92202 475.453 9.04762 475.008 8.96267C474.768 8.91714 474.492 8.82847 474.198 8.66635C473.322 8.18038 472.95 7.19331 472.946 7.18307C472.946 7.18307 472.944 7.17729 472.941 7.17034C472.939 7.16339 472.902 7.15761 472.859 7.15761C472.815 7.15761 472.781 7.12357 472.781 7.08209C472.781 7.04061 472.751 7.00656 472.713 7.00656C472.675 7.00656 472.277 7.00615 471.824 7.00615C470.338 7.00574 467.355 7.00574 467.355 7.00574C467.355 7.00574 467.324 7.00574 467.287 7.00574C467.249 7.00574 467.218 7.03979 467.218 7.08126C467.218 7.12274 467.184 7.15679 467.14 7.15679C467.097 7.15679 467.06 7.16257 467.058 7.16951L467.053 7.18224C467.049 7.19208 466.677 8.17921 465.801 8.66552C465.507 8.82806 465.231 8.91672 464.991 8.96226C464.546 9.04721 464.103 8.92161 464.014 8.85922C463.925 8.79683 463.832 8.75742 463.804 8.77055C463.777 8.78369 463.756 8.9126 463.756 9.0587C463.756 9.20479 463.695 9.35832 463.659 9.42972C463.64 9.46666 463.628 9.51343 463.631 9.57052C463.643 9.74166 463.839 9.79917 463.951 9.79174Z" fill="white"/>
<path d="M476.34 13.2213C476.303 13.1503 476.243 12.9964 476.243 12.8503C476.243 12.7042 476.222 12.5753 476.195 12.5621C476.168 12.5494 476.074 12.5888 475.985 12.6512C475.896 12.7128 475.453 12.8388 475.008 12.7538C474.768 12.7083 474.492 12.6192 474.198 12.4571C473.322 11.9711 472.95 10.9841 472.946 10.9742C472.946 10.9742 472.944 10.9681 472.941 10.9615C472.939 10.9541 472.902 10.9488 472.859 10.9488C472.815 10.9488 472.781 10.9147 472.781 10.8732C472.781 10.8314 472.751 10.7973 472.713 10.7973C472.675 10.7973 472.277 10.7969 471.824 10.7969C470.338 10.7965 467.355 10.7965 467.355 10.7965C467.355 10.7965 467.324 10.7965 467.287 10.7965C467.249 10.7965 467.218 10.8305 467.218 10.8724C467.218 10.9139 467.184 10.9479 467.14 10.9479C467.097 10.9479 467.06 10.9537 467.058 10.9607L467.053 10.9734C467.049 10.9828 466.677 11.9704 465.801 12.4558C465.507 12.6184 465.231 12.7071 464.991 12.753C464.546 12.8379 464.103 12.7119 464.014 12.6495C463.925 12.5876 463.832 12.5477 463.804 12.5613C463.777 12.574 463.756 12.7033 463.756 12.849C463.756 12.9947 463.695 13.1487 463.659 13.22C463.64 13.257 463.628 13.3038 463.631 13.3609C463.643 13.532 463.839 13.5899 463.951 13.5821C464.008 13.5771 464.081 13.5345 464.126 13.4782C464.166 13.4285 464.183 13.3719 464.175 13.3157C464.169 13.2652 464.144 13.2188 464.115 13.1786C464.065 13.1104 464.01 13.055 464.011 13.0369C464.012 13.0189 464.184 13.1699 464.433 13.3205C464.682 13.4708 464.922 13.5499 464.922 13.6054C464.922 13.6616 464.976 13.7064 465.042 13.7064H465.161C465.161 13.7064 465.247 13.7064 465.354 13.7064C465.46 13.7064 465.547 13.761 465.547 13.8282C465.547 13.8948 465.722 13.9493 465.938 13.9493C466.154 13.9493 466.323 13.9948 466.316 14.0503C466.311 14.0831 466.307 14.1168 466.303 14.1513C466.258 14.4759 466.205 14.8551 466.16 15.261C466.108 15.6674 466.072 16.1008 466.029 16.5338C465.994 16.9676 465.889 17.4002 465.88 17.8069C465.88 17.8405 465.882 17.8734 465.883 17.9066C465.885 17.9617 465.812 18.0064 465.717 18.0064C465.623 18.0064 465.547 18.0803 465.547 18.1706C465.547 18.2609 465.395 18.3352 465.208 18.3352C465.02 18.3352 464.869 18.7029 464.869 19.1561V19.179C464.869 19.6321 465.225 19.9999 465.664 19.9999H466.46H466.583H469.938H470.061H473.404H473.528C473.528 19.9999 473.875 19.9999 474.302 19.9999C474.729 19.9999 475.076 19.6322 475.076 19.179V19.1561C475.076 18.703 474.934 18.3352 474.759 18.3352C474.583 18.3352 474.441 18.2609 474.441 18.1706C474.441 18.0803 474.365 18.0064 474.271 18.0064C474.176 18.0064 474.103 17.9617 474.105 17.9066C474.107 17.8738 474.108 17.8405 474.108 17.8069C474.099 17.4006 473.995 16.9676 473.959 16.5338C473.916 16.1008 473.88 15.6678 473.829 15.261C473.784 14.8551 473.73 14.4759 473.686 14.1513C473.681 14.1168 473.677 14.0831 473.673 14.0503C473.665 13.9944 473.835 13.9493 474.051 13.9493C474.266 13.9493 474.442 13.8947 474.442 13.8282C474.442 13.7609 474.584 13.7064 474.759 13.7064C474.934 13.7064 475.077 13.6616 475.077 13.6054C475.077 13.5495 475.317 13.4716 475.565 13.3205C475.814 13.1699 475.986 13.0193 475.987 13.0369C475.988 13.0546 475.933 13.1112 475.884 13.1786C475.854 13.2184 475.829 13.2652 475.823 13.3157C475.815 13.3727 475.833 13.4285 475.873 13.4782C475.918 13.5344 475.99 13.5775 476.049 13.5821C476.182 13.5833 476.358 13.5238 476.369 13.3613C476.372 13.3047 476.36 13.2582 476.34 13.2213ZM469.781 14.1517C469.737 14.4772 469.683 14.8556 469.639 15.2619C469.587 15.6682 469.551 16.1012 469.508 16.5351C469.472 16.9685 469.367 17.4015 469.359 17.8078C469.359 17.8414 469.36 17.8743 469.361 17.9075C469.364 17.9626 469.29 18.0073 469.196 18.0073C469.102 18.0073 469.025 18.0812 469.025 18.1719C469.025 18.2626 468.683 18.3361 468.261 18.3361C467.839 18.3361 467.497 18.2622 467.497 18.1719C467.497 18.0807 467.42 18.0073 467.326 18.0073C467.232 18.0073 467.158 17.9626 467.161 17.9075C467.162 17.8747 467.163 17.8414 467.163 17.8078C467.155 17.4019 467.05 16.9685 467.014 16.5351C466.971 16.1012 466.935 15.6687 466.883 15.2619C466.839 14.8556 466.785 14.4772 466.741 14.1517C466.736 14.1173 466.732 14.0844 466.728 14.0516C466.72 13.9954 466.889 13.9506 467.105 13.9506C467.321 13.9506 467.496 13.896 467.496 13.8287C467.496 13.7622 467.839 13.7077 468.261 13.7077C468.683 13.7077 469.025 13.7623 469.025 13.8287C469.025 13.8961 469.2 13.9506 469.416 13.9506C469.632 13.9506 469.801 13.9957 469.794 14.0516C469.79 14.0845 469.785 14.1173 469.781 14.1517ZM473.248 14.1517C473.204 14.4772 473.15 14.8556 473.106 15.2619C473.054 15.6682 473.017 16.1012 472.975 16.5351C472.939 16.9685 472.835 17.4015 472.826 17.8078C472.826 17.8414 472.828 17.8743 472.829 17.9075C472.831 17.9626 472.758 18.0073 472.664 18.0073C472.569 18.0073 472.493 18.0812 472.493 18.1719C472.493 18.2626 472.153 18.3361 471.734 18.3361C471.315 18.3361 470.975 18.2622 470.975 18.1719C470.975 18.0807 470.899 18.0073 470.804 18.0073C470.71 18.0073 470.637 17.9626 470.639 17.9075C470.641 17.8747 470.641 17.8414 470.641 17.8078C470.633 17.4019 470.529 16.9685 470.492 16.5351C470.45 16.1012 470.413 15.6687 470.362 15.2619C470.317 14.8556 470.263 14.4772 470.219 14.1517C470.215 14.1173 470.21 14.0844 470.206 14.0516C470.199 13.9954 470.368 13.9506 470.584 13.9506C470.8 13.9506 470.975 13.896 470.975 13.8287C470.975 13.7622 471.315 13.7077 471.734 13.7077C472.153 13.7077 472.492 13.7623 472.492 13.8287C472.492 13.8961 472.668 13.9506 472.883 13.9506C473.099 13.9506 473.268 13.9957 473.261 14.0516C473.257 14.0845 473.252 14.1173 473.248 14.1517Z" fill="white"/>
<g clip-path="url(#clip1_13_144)">
<path d="M273.625 6.16376C273.271 6.35677 272.924 6.80914 272.849 7.17349L272.713 7.83392C272.713 7.83392 272.618 8.36444 272.499 9.01829C272.381 9.6726 272.069 10.5072 271.801 10.8824C271.532 11.2585 271.028 11.7622 270.674 12.0093C270.32 12.2565 269.954 12.2993 269.858 12.1063C269.761 11.9133 269.604 11.8003 269.508 11.854C269.411 11.9076 269.176 12.2983 268.983 12.7277C268.79 13.157 268.512 13.6178 268.362 13.7576C268.212 13.897 267.786 14.0099 267.411 14.0099C267.036 14.0099 266.27 14.1224 265.702 14.2622C265.133 14.4016 264.334 14.7146 263.916 14.9608L263.158 15.4075C263.158 15.4075 263.036 15.4772 262.886 15.5629C262.736 15.6485 262.788 15.8312 263.003 15.9705C263.217 16.1099 263.539 16.2751 263.721 16.3396C263.903 16.4041 264.651 16.1777 265.391 15.8345C266.131 15.4913 266.97 15.239 267.265 15.2715C267.559 15.3044 267.838 15.6697 267.886 16.0877C267.935 16.5058 268.217 16.7322 268.517 16.5924C268.818 16.4526 269.253 16.0957 269.489 15.7959C269.724 15.496 270.359 15.1477 270.906 15.0197C271.453 14.8911 272.14 14.5343 272.441 14.2227C272.741 13.912 273.106 13.7637 273.256 13.8932C273.406 14.0212 273.459 14.378 273.373 14.6887C273.287 15.0003 273.565 14.9481 273.994 14.5729C274.423 14.1978 274.718 13.0755 274.654 12.0677C274.59 11.0589 274.66 9.77287 274.81 9.1934C274.959 8.6144 274.899 7.62303 274.674 6.97954C274.449 6.33652 273.979 5.97076 273.625 6.16376Z" fill="white"/>
<path d="M278.48 2.00955C278.254 1.75206 277.402 1.30863 276.576 1.01913C275.751 0.729626 274.89 0.338448 274.654 0.144506C274.418 -0.0484942 274.017 -0.0484942 273.76 0.144506C273.503 0.337506 273.425 1.01583 273.586 1.65932C273.747 2.30281 273.608 3.03339 273.275 3.29041C272.943 3.5479 272.674 4.13914 272.674 4.61128C272.674 5.08343 273.021 5.46566 273.45 5.46566C273.879 5.46566 274.226 5.18746 274.226 4.8443C274.226 4.50113 274.505 4.40557 274.848 4.63058C275.191 4.85559 275.704 4.97751 275.994 4.90267C276.283 4.82735 276.683 4.41875 276.887 3.98992C277.091 3.56108 277.621 3.04798 278.071 2.84416C278.522 2.64033 278.705 2.26704 278.48 2.00955Z" fill="white"/>
<path d="M263.061 16.4968C262.814 16.3038 262.275 16.3038 261.857 16.4968C261.438 16.6898 261.299 17.1332 261.546 17.4872C261.793 17.8412 261.845 18.3887 261.662 18.7111C261.48 19.0326 261.48 19.4667 261.662 19.6818C261.844 19.8964 262.131 20.0353 262.303 19.9925C262.475 19.9496 262.849 19.4191 263.138 18.8076C263.428 18.1966 263.628 17.5093 263.585 17.2735C263.542 17.0377 263.307 16.6903 263.061 16.4968Z" fill="white"/>
<path d="M265.798 16.2049L264.983 16.6517L264.866 16.8456C264.866 16.8456 264.788 16.9845 264.692 17.1563C264.595 17.3281 264.595 17.6581 264.692 17.8944C264.788 18.1302 265.093 17.9914 265.372 17.5837C265.65 17.1761 266.05 16.9247 266.265 17.0212C266.48 17.1172 266.749 17.1695 266.867 17.137C266.985 17.105 266.976 16.783 266.848 16.4182C266.718 16.0538 266.249 15.9587 265.798 16.2049Z" fill="white"/>
</g>
<path d="M66.7473 5.89679C66.838 5.89679 66.9132 5.84424 66.9222 5.7749C66.9271 5.73838 66.9176 5.69243 66.9037 5.64971C66.8823 5.58279 66.9669 5.62014 67.1048 5.72854C67.2427 5.83688 67.3548 5.99041 67.3548 6.07082C67.3548 6.15164 67.4122 6.21692 67.4828 6.21692H67.6109H68.6124C68.6124 6.21692 68.6821 6.21692 68.7683 6.21692C68.8545 6.21692 69.2912 6.21692 69.7447 6.21692C69.9114 6.21692 70.0866 6.21692 70.2532 6.21692C70.7063 6.21692 71.1438 6.21692 71.23 6.21692C71.3076 6.21692 71.386 6.21692 71.386 6.21692H72.3882C72.3882 6.21692 72.4457 6.21692 72.5163 6.21692C72.5873 6.21692 72.6444 6.15164 72.6444 6.07123C72.6444 5.99082 72.7564 5.8377 72.8944 5.72895C73.0323 5.62021 73.1168 5.58327 73.0955 5.65013C73.0815 5.69284 73.0721 5.73879 73.0766 5.77532C73.0857 5.84506 73.1612 5.89762 73.2519 5.89762C73.3089 5.89762 73.364 5.87629 73.4074 5.8377C73.4542 5.79581 73.4682 5.74491 73.4669 5.69731C73.4645 5.6103 73.421 5.43421 73.421 5.2943C73.421 5.15391 73.4095 5.04516 73.3943 5.05094L73.368 5.0616C73.3664 5.06243 73.1817 5.13424 72.8739 5.13424C72.5705 5.13424 72.0903 5.06284 71.5252 4.72215C71.1337 4.48656 70.8739 4.21445 70.7014 3.96448C70.4445 3.59098 70.4396 3.22325 70.5184 3.22738C70.5681 3.22986 70.6156 3.2311 70.6612 3.2311C71.1549 3.2311 71.2666 3.08458 71.2772 3.06773C71.2772 3.06773 71.2834 3.05913 71.2908 3.04847C71.2977 3.03781 71.2941 3.02467 71.2822 3.01972L71.2604 3.0103C71.0856 2.93436 70.9317 2.84246 70.8045 2.75338C70.5668 2.58713 70.4051 2.3988 70.4006 2.38236C70.3962 2.36592 70.3506 1.98836 70.2882 1.53933C70.2356 1.1617 70.172 0.71439 70.1179 0.33676C70.0534 -0.111856 69.948 -0.112269 69.8827 0.336347L69.7078 1.54057C69.6425 1.98918 69.5987 2.3655 69.5978 2.38236C69.597 2.39921 69.4341 2.58679 69.196 2.75297C69.0687 2.84205 68.9145 2.93394 68.7388 3.00988C68.7388 3.00988 68.7294 3.01401 68.7175 3.01931C68.7056 3.02467 68.7018 3.0374 68.7089 3.04806L68.722 3.06773C68.7331 3.08417 68.8455 3.23068 69.3393 3.23068C69.3848 3.23068 69.4324 3.22944 69.4821 3.22697C69.5609 3.22284 69.5559 3.59105 69.299 3.96448C69.1275 4.21403 68.8677 4.48615 68.4761 4.72174C67.911 5.06243 67.4307 5.13383 67.1274 5.13383C66.8196 5.13383 66.6349 5.06202 66.6333 5.06119C66.6333 5.06119 66.6214 5.05624 66.6066 5.05053C66.5918 5.04475 66.5799 5.15357 66.5799 5.29348C66.5799 5.43339 66.5368 5.60913 66.5344 5.69614C66.5331 5.74581 66.5475 5.79712 66.5926 5.83695C66.6349 5.8754 66.6902 5.89679 66.7473 5.89679Z" fill="white"/>
<path d="M63.9506 9.79174C64.0084 9.78678 64.0807 9.74414 64.1263 9.68787C64.1665 9.63821 64.1833 9.5816 64.1755 9.52533C64.169 9.47484 64.1444 9.42807 64.1148 9.38783C64.0651 9.32008 64.0101 9.26471 64.0109 9.24662C64.0122 9.22852 64.1845 9.37958 64.4333 9.53022C64.682 9.68086 64.9225 9.75961 64.9225 9.81547C64.9225 9.87132 64.9759 9.91644 65.0419 9.91644H65.1613H74.2557C74.7088 9.91644 75.0766 9.87132 75.0766 9.81547C75.0766 9.75961 75.3167 9.68127 75.565 9.53022C75.8137 9.37958 75.9857 9.22894 75.9869 9.24662C75.9882 9.26429 75.9331 9.32049 75.8835 9.38783C75.8543 9.42766 75.8293 9.47484 75.8232 9.52492C75.8154 9.58194 75.8326 9.63821 75.8728 9.68787C75.9179 9.74448 75.9906 9.7872 76.0485 9.79174C76.1806 9.79256 76.3563 9.73306 76.3674 9.57011C76.3715 9.51391 76.3592 9.46748 76.3403 9.43055C76.3033 9.35915 76.2434 9.20562 76.2434 9.05952C76.2434 8.91342 76.2217 8.78452 76.1946 8.77138C76.1675 8.75824 76.0735 8.79807 75.9849 8.86004C75.8958 8.92202 75.453 9.04762 75.0076 8.96267C74.7683 8.91714 74.4918 8.82847 74.1983 8.66635C73.3216 8.18038 72.9501 7.19331 72.946 7.18307C72.946 7.18307 72.944 7.17729 72.9415 7.17034C72.939 7.16339 72.9017 7.15761 72.8586 7.15761C72.8155 7.15761 72.781 7.12357 72.781 7.08209C72.781 7.04061 72.7506 7.00656 72.7129 7.00656C72.6751 7.00656 72.277 7.00615 71.8239 7.00615C70.3382 7.00574 67.3548 7.00574 67.3548 7.00574C67.3548 7.00574 67.3244 7.00574 67.2866 7.00574C67.2488 7.00574 67.2184 7.03979 67.2184 7.08126C67.2184 7.12274 67.1836 7.15679 67.1404 7.15679C67.0973 7.15679 67.0604 7.16257 67.0575 7.16951L67.0526 7.18224C67.0489 7.19208 66.6774 8.17921 65.8008 8.66552C65.5073 8.82806 65.2307 8.91672 64.9914 8.96226C64.5461 9.04721 64.1032 8.92161 64.0142 8.85922C63.9251 8.79683 63.8315 8.75742 63.8044 8.77055C63.7773 8.78369 63.7556 8.9126 63.7556 9.0587C63.7556 9.20479 63.6953 9.35832 63.6587 9.42972C63.6399 9.46666 63.6276 9.51343 63.6312 9.57052C63.6428 9.74166 63.8394 9.79917 63.9506 9.79174Z" fill="white"/>
<path d="M76.3403 13.2213C76.3034 13.1503 76.2434 12.9964 76.2434 12.8503C76.2434 12.7042 76.2217 12.5753 76.1946 12.5621C76.1675 12.5494 76.0735 12.5888 75.9849 12.6512C75.8958 12.7128 75.453 12.8388 75.0076 12.7538C74.7683 12.7083 74.4918 12.6192 74.1983 12.4571C73.3216 11.9711 72.9501 10.9841 72.946 10.9742C72.946 10.9742 72.944 10.9681 72.9415 10.9615C72.939 10.9541 72.9017 10.9488 72.8586 10.9488C72.8155 10.9488 72.781 10.9147 72.781 10.8732C72.781 10.8314 72.7506 10.7973 72.7129 10.7973C72.6751 10.7973 72.277 10.7969 71.8239 10.7969C70.3382 10.7965 67.3548 10.7965 67.3548 10.7965C67.3548 10.7965 67.3244 10.7965 67.2866 10.7965C67.2488 10.7965 67.2184 10.8305 67.2184 10.8724C67.2184 10.9139 67.1836 10.9479 67.1404 10.9479C67.0973 10.9479 67.0604 10.9537 67.0575 10.9607L67.0526 10.9734C67.0489 10.9828 66.6774 11.9704 65.8008 12.4558C65.5073 12.6184 65.2307 12.7071 64.9914 12.753C64.5461 12.8379 64.1032 12.7119 64.0142 12.6495C63.9251 12.5876 63.8315 12.5477 63.8044 12.5613C63.7773 12.574 63.7556 12.7033 63.7556 12.849C63.7556 12.9947 63.6953 13.1487 63.6587 13.22C63.6399 13.257 63.6276 13.3038 63.6312 13.3609C63.6427 13.532 63.8393 13.5899 63.9505 13.5821C64.0084 13.5771 64.0806 13.5345 64.1262 13.4782C64.1664 13.4285 64.1832 13.3719 64.1755 13.3157C64.1689 13.2652 64.1443 13.2188 64.1147 13.1786C64.0651 13.1104 64.01 13.055 64.0108 13.0369C64.0121 13.0189 64.1845 13.1699 64.4332 13.3205C64.6819 13.4708 64.9225 13.5499 64.9225 13.6054C64.9225 13.6616 64.9758 13.7064 65.0419 13.7064H65.1613C65.1613 13.7064 65.2475 13.7064 65.3542 13.7064C65.4604 13.7064 65.547 13.761 65.547 13.8282C65.547 13.8948 65.7223 13.9493 65.9381 13.9493C66.1541 13.9493 66.3231 13.9948 66.3158 14.0503C66.3112 14.0831 66.3072 14.1168 66.3026 14.1513C66.2583 14.4759 66.2045 14.8551 66.1602 15.261C66.1084 15.6674 66.0719 16.1008 66.0293 16.5338C65.9936 16.9676 65.8889 17.4002 65.8803 17.8069C65.8803 17.8405 65.8815 17.8734 65.8828 17.9066C65.8852 17.9617 65.8118 18.0064 65.7173 18.0064C65.623 18.0064 65.5466 18.0803 65.5466 18.1706C65.5466 18.2609 65.3947 18.3352 65.2076 18.3352C65.0204 18.3352 64.8685 18.7029 64.8685 19.1561V19.179C64.8685 19.6321 65.2248 19.9999 65.664 19.9999H66.4596H66.5827H69.9376H70.0607H73.4045H73.5276C73.5276 19.9999 73.8748 19.9999 74.302 19.9999C74.7293 19.9999 75.0762 19.6322 75.0762 19.179V19.1561C75.0762 18.703 74.9337 18.3352 74.7585 18.3352C74.5832 18.3352 74.4413 18.2609 74.4413 18.1706C74.4413 18.0803 74.3645 18.0064 74.2705 18.0064C74.1762 18.0064 74.1027 17.9617 74.1051 17.9066C74.1068 17.8738 74.1076 17.8405 74.1076 17.8069C74.099 17.4006 73.9951 16.9676 73.959 16.5338C73.9163 16.1008 73.8798 15.6678 73.8285 15.261C73.7838 14.8551 73.7304 14.4759 73.6857 14.1513C73.6812 14.1168 73.6771 14.0831 73.673 14.0503C73.6652 13.9944 73.8347 13.9493 74.0506 13.9493C74.2661 13.9493 74.4418 13.8947 74.4418 13.8282C74.4418 13.7609 74.5838 13.7064 74.759 13.7064C74.9343 13.7064 75.0766 13.6616 75.0766 13.6054C75.0766 13.5495 75.3168 13.4716 75.5651 13.3205C75.8138 13.1699 75.9858 13.0193 75.987 13.0369C75.9882 13.0546 75.9332 13.1112 75.8836 13.1786C75.8544 13.2184 75.8294 13.2652 75.8232 13.3157C75.8155 13.3727 75.8327 13.4285 75.8729 13.4782C75.918 13.5344 75.9903 13.5775 76.0486 13.5821C76.1824 13.5833 76.358 13.5238 76.3691 13.3613C76.3715 13.3047 76.3596 13.2582 76.3403 13.2213ZM69.7812 14.1517C69.7369 14.4772 69.6831 14.8556 69.6388 15.2619C69.587 15.6682 69.5505 16.1012 69.5079 16.5351C69.4722 16.9685 69.3675 17.4015 69.3589 17.8078C69.3589 17.8414 69.3601 17.8743 69.3614 17.9075C69.3638 17.9626 69.2904 18.0073 69.1959 18.0073C69.1016 18.0073 69.0252 18.0812 69.0252 18.1719C69.0252 18.2626 68.6829 18.3361 68.261 18.3361C67.8391 18.3361 67.4968 18.2622 67.4968 18.1719C67.4968 18.0807 67.4205 18.0073 67.3261 18.0073C67.2317 18.0073 67.1582 17.9626 67.1607 17.9075C67.1623 17.8747 67.1631 17.8414 67.1631 17.8078C67.1549 17.4019 67.0503 16.9685 67.0141 16.5351C66.9714 16.1012 66.9349 15.6687 66.8832 15.2619C66.8385 14.8556 66.7852 14.4772 66.7408 14.1517C66.7362 14.1173 66.7318 14.0844 66.7277 14.0516C66.7203 13.9954 66.8894 13.9506 67.1053 13.9506C67.3212 13.9506 67.4964 13.896 67.4964 13.8287C67.4964 13.7622 67.8387 13.7077 68.2606 13.7077C68.6825 13.7077 69.0248 13.7623 69.0248 13.8287C69.0248 13.8961 69.2001 13.9506 69.4159 13.9506C69.6318 13.9506 69.8009 13.9957 69.7935 14.0516C69.7898 14.0845 69.7853 14.1173 69.7812 14.1517ZM73.2481 14.1517C73.2038 14.4772 73.15 14.8556 73.1057 15.2619C73.0535 15.6682 73.0174 16.1012 72.9752 16.5351C72.9395 16.9685 72.8348 17.4015 72.8262 17.8078C72.8262 17.8414 72.8278 17.8743 72.8287 17.9075C72.8312 17.9626 72.7577 18.0073 72.6637 18.0073C72.5693 18.0073 72.4929 18.0812 72.4929 18.1719C72.4929 18.2626 72.1531 18.3361 71.7344 18.3361C71.3154 18.3361 70.9751 18.2622 70.9751 18.1719C70.9751 18.0807 70.8988 18.0073 70.8044 18.0073C70.71 18.0073 70.6366 17.9626 70.639 17.9075C70.6406 17.8747 70.6414 17.8414 70.6414 17.8078C70.6333 17.4019 70.5286 16.9685 70.4925 16.5351C70.4497 16.1012 70.4132 15.6687 70.3616 15.2619C70.3169 14.8556 70.2635 14.4772 70.2191 14.1517C70.2146 14.1173 70.2101 14.0844 70.206 14.0516C70.1986 13.9954 70.3677 13.9506 70.5836 13.9506C70.7995 13.9506 70.9747 13.896 70.9747 13.8287C70.9747 13.7622 71.3146 13.7077 71.7336 13.7077C72.1527 13.7077 72.4921 13.7623 72.4921 13.8287C72.4921 13.8961 72.6678 13.9506 72.8832 13.9506C73.0991 13.9506 73.2682 13.9957 73.2609 14.0516C73.2567 14.0845 73.2523 14.1173 73.2481 14.1517Z" fill="white"/>
<g clip-path="url(#clip2_13_144)">
<path d="M5.35672 10.5141C5.19707 10.5666 5.3024 10.2567 5.59194 9.82217L5.76717 9.55814C6.05624 9.12407 6.17858 8.78446 6.04066 8.79957C5.90226 8.81469 6.04491 8.61536 6.35854 8.35416C6.67216 8.09296 6.82898 7.86105 6.70948 7.83649C6.58998 7.81192 6.88046 7.62205 7.35516 7.40572C8.26251 6.99243 9.13113 6.53568 9.70879 5.76531C9.87411 5.52253 9.92371 5.31328 9.89159 5.12718C9.82735 4.75687 9.47074 4.64115 9.40934 4.72428L9.29739 4.87448C9.07587 5.22496 8.69942 5.49371 7.9059 5.54331C7.38869 5.58865 7.06892 5.88386 6.76994 6.21024C6.62304 6.35147 6.47662 6.44735 6.32925 6.48892C6.04916 6.56874 5.91076 6.35761 6.01893 6.29337C6.12709 6.22866 6.51913 6.07421 6.40199 5.84277C6.28485 5.61132 6.00429 5.3095 5.98303 5.08609C5.96225 4.8622 6.30044 4.66902 6.44781 4.55188L6.71515 4.34028C6.80772 4.28029 6.90125 4.24628 6.99382 4.23022C7.1582 4.20141 7.37027 4.08049 7.54551 3.99783C7.72074 3.91565 8.12601 3.89439 8.10333 3.74089C8.09625 3.69176 8.00131 3.64264 7.87331 3.59352C7.56629 3.49858 7.25739 3.51417 6.94895 3.68279C6.69436 3.84669 6.34106 3.89817 5.97122 3.95627C5.45543 4.03704 4.93918 4.14426 4.8381 4.03987C4.73654 3.93549 4.70065 3.49386 4.70065 3.09426C4.70065 2.69467 5.12291 2.49204 5.63964 2.42166C6.71467 2.27571 6.95557 1.32065 7.4416 0.65844C7.7505 0.238063 8.08586 0.424162 8.33856 0.506821C8.44247 0.540829 8.59314 0.490289 8.78444 0.366065C8.92189 0.260735 9.05839 0.157766 9.1949 0.0713295C9.43059 -0.0779278 9.28653 0.371261 9.6455 0.47423C10.004 0.577198 10.3838 0.0113432 10.6298 0.000479494C10.8759 -0.0103842 10.738 0.143124 10.5784 0.405269C10.4688 0.585228 10.5297 0.778412 10.823 0.700949C11.1074 0.648993 11.3624 0.659856 11.5934 0.721732C12.0076 0.833203 12.113 1.10291 11.9193 1.11849C11.7257 1.13361 11.2996 1.16667 11.1697 1.40425C11.0885 1.55257 11.1574 1.6971 11.4342 1.64656C11.6151 1.62719 11.7554 1.6579 11.8678 1.72308C12.0823 1.84683 11.9023 1.85628 11.6746 2.01781C11.583 2.083 11.6156 2.23367 11.8083 2.45378C14.2167 5.20323 10.3464 7.33817 9.26764 10.0475C9.07445 10.5321 9.24071 10.593 9.5312 10.1594C12.2575 6.09358 15.2842 5.40491 18.5509 7.42083C18.9949 7.69479 18.9146 7.88655 18.3955 7.83082C17.9349 7.78122 17.474 7.76375 17.013 7.85821C16.4986 8.01078 16.0456 8.18318 16.4197 8.41084C17.3266 8.94505 18.3667 9.47359 18.7691 10.0324C19.0742 10.4556 18.8971 10.4022 18.5093 10.0531C18.1503 9.73007 17.5047 9.52649 16.7286 9.37676C16.2161 9.27805 15.6045 9.12265 15.3475 9.10753C15.1453 9.09573 15.0958 9.20247 15.1888 9.42022C15.3177 9.7074 15.4325 9.99505 15.5369 10.2827C15.7126 10.7654 15.5227 10.8745 15.0929 10.5784C10.0111 7.08028 7.19409 16.3201 11.7384 14.0113C12.2037 13.7751 12.3614 13.9145 12.0166 14.3056C10.1041 16.4792 7.05664 14.2999 7.63525 10.3091C7.71035 9.79289 7.6088 9.74991 7.42223 10.2374C6.78458 11.8986 7.01366 13.5734 7.84969 14.9517C8.3088 15.8704 11.0356 17.4272 8.94739 19.7577C8.59928 20.1464 8.48923 20.0496 8.74051 19.5919C9.28181 18.6057 9.48255 17.7489 8.16663 16.8259C7.18606 16.244 6.16205 14.9635 5.75867 12.9348C5.65618 12.4238 5.39073 12.3647 5.27359 12.873C5.19707 13.206 5.16023 13.5602 5.13425 13.9192C5.09646 14.4402 5.02608 14.4402 5.019 13.9182C5.00625 13.0595 5.09079 12.1919 5.3383 11.311C5.47905 10.8094 5.51589 10.4617 5.35672 10.5141ZM8.29982 1.21296C8.08255 1.21296 7.90637 1.38914 7.90637 1.60641C7.90637 1.82369 8.08255 1.99987 8.29982 1.99987C8.5171 1.99987 8.69328 1.82369 8.69328 1.60641C8.69375 1.38914 8.51757 1.21296 8.29982 1.21296Z" fill="white"/>
<path d="M1.51996 6.91779C1.64277 6.88945 1.7533 6.85308 1.84729 6.81293C2.32718 6.60746 2.03292 6.15119 2.36497 5.74829C2.39095 5.71712 2.41551 5.68547 2.44054 5.65335C2.75984 5.24148 3.15188 5.47481 3.56611 5.15787C3.6261 5.11206 3.68797 5.05679 3.75079 4.99492C4.12252 4.62933 4.65862 4.66806 5.17582 4.60005C5.30713 4.58257 5.44789 4.55565 5.59337 4.52448C6.10349 4.41489 6.17292 4.56982 5.73081 4.84708C5.35625 5.0823 4.97744 5.31752 4.71955 5.54377C4.32751 5.8881 4.30153 6.45915 4.04978 6.31698C3.79803 6.17481 3.39607 6.16489 3.07205 6.57346C2.67198 7.07744 2.1921 7.63195 1.40047 7.39721C0.899792 7.24842 1.01032 7.03493 1.51996 6.91779Z" fill="white"/>
</g>
<line x1="480" y1="9" x2="520" y2="9" stroke="white" stroke-width="2"/>
<line x1="20" y1="9" x2="60" y2="9" stroke="white" stroke-width="2"/>
<line x1="80" y1="9" x2="260" y2="9" stroke="white" stroke-width="2"/>
<line x1="280" y1="9" x2="460" y2="9" stroke="white" stroke-width="2"/>
<defs>
<clipPath id="clip0_13_144">
<rect width="20" height="20" fill="white" transform="translate(520)"/>
</clipPath>
<clipPath id="clip1_13_144">
<rect width="20" height="20" fill="white" transform="translate(260)"/>
</clipPath>
<clipPath id="clip2_13_144">
<rect width="20" height="20" fill="white" transform="matrix(-1 0 0 1 20 0)"/>
</clipPath>
</defs>
</svg>
